<svg xmlns="http://www.w3.org/2000/svg" width="1200" height="760" viewBox="0 0 1200 760" role="img" aria-labelledby="title desc">
  <title id="title">E-commerce dashboard placeholder</title>
  <desc id="desc">Abstract dashboard interface for a technical product demo.</desc>
  <rect width="1200" height="760" fill="#f1f5f9"/>
  <rect x="72" y="72" width="1056" height="616" rx="28" fill="#ffffff" stroke="#cbd5e1"/>
  <rect x="112" y="112" width="220" height="536" rx="20" fill="#0f172a"/>
  <rect x="380" y="116" width="708" height="72" rx="20" fill="#e2e8f0"/>
  <rect x="380" y="228" width="190" height="138" rx="20" fill="#dbeafe"/>
  <rect x="604" y="228" width="190" height="138" rx="20" fill="#dcfce7"/>
  <rect x="828" y="228" width="260" height="138" rx="20" fill="#f3e8ff"/>
  <rect x="380" y="410" width="430" height="238" rx="20" fill="#f8fafc" stroke="#dbe4ef"/>
  <rect x="848" y="410" width="240" height="238" rx="20" fill="#f8fafc" stroke="#dbe4ef"/>
  <path d="M420 590c54-90 112-120 174-70 42 34 78 22 134-62" fill="none" stroke="#2563eb" stroke-width="10" stroke-linecap="round"/>
  <rect x="884" y="458" width="160" height="16" rx="8" fill="#94a3b8"/>
  <rect x="884" y="510" width="120" height="16" rx="8" fill="#94a3b8"/>
  <rect x="884" y="562" width="146" height="16" rx="8" fill="#94a3b8"/>
</svg>
