<svg xmlns="http://www.w3.org/2000/svg" width="1200" height="760" viewBox="0 0 1200 760" role="img" aria-labelledby="title desc">
  <title id="title">Healthcare platform architecture placeholder</title>
  <desc id="desc">Abstract secure healthcare platform architecture diagram.</desc>
  <rect width="1200" height="760" fill="#07111f"/>
  <circle cx="600" cy="380" r="250" fill="#0f766e" opacity="0.12"/>
  <circle cx="600" cy="380" r="160" fill="#2563eb" opacity="0.12"/>
  <rect x="472" y="300" width="256" height="160" rx="28" fill="#0f172a" stroke="#22d3ee" stroke-width="2"/>
  <path d="M600 332c38 0 68 30 68 68s-30 68-68 68-68-30-68-68 30-68 68-68z" fill="#111827" stroke="#22d3ee" stroke-width="2"/>
  <path d="M600 356v88M556 400h88" stroke="#22d3ee" stroke-width="18" stroke-linecap="round"/>
  <rect x="120" y="130" width="230" height="100" rx="22" fill="#111c2e" stroke="#1e293b"/>
  <rect x="850" y="130" width="230" height="100" rx="22" fill="#111c2e" stroke="#1e293b"/>
  <rect x="120" y="530" width="230" height="100" rx="22" fill="#111c2e" stroke="#1e293b"/>
  <rect x="850" y="530" width="230" height="100" rx="22" fill="#111c2e" stroke="#1e293b"/>
  <path d="M350 180h180M728 180h122M350 580h180M728 580h122" stroke="#22d3ee" stroke-width="3" stroke-dasharray="10 12"/>
  <rect x="158" y="166" width="154" height="14" rx="7" fill="#cbd5e1"/>
  <rect x="888" y="166" width="154" height="14" rx="7" fill="#cbd5e1"/>
  <rect x="158" y="566" width="154" height="14" rx="7" fill="#cbd5e1"/>
  <rect x="888" y="566" width="154" height="14" rx="7" fill="#cbd5e1"/>
</svg>
