<svg xmlns="http://www.w3.org/2000/svg" width="1200" height="760" viewBox="0 0 1200 760" role="img" aria-labelledby="title desc">
  <title id="title">Leah Naidoo website placeholder</title>
  <desc id="desc">Professional legal website layout placeholder.</desc>
  <rect width="1200" height="760" fill="#f8fafc"/>
  <rect x="84" y="80" width="1032" height="600" rx="28" fill="#ffffff" stroke="#dbe4ef" stroke-width="2"/>
  <rect x="132" y="128" width="936" height="64" rx="18" fill="#0f172a"/>
  <rect x="164" y="152" width="142" height="16" rx="8" fill="#ffffff"/>
  <rect x="830" y="148" width="66" height="12" rx="6" fill="#94a3b8"/>
  <rect x="918" y="148" width="66" height="12" rx="6" fill="#94a3b8"/>
  <rect x="1006" y="144" width="42" height="20" rx="10" fill="#c8a96a"/>
  <rect x="150" y="260" width="416" height="44" rx="8" fill="#111827"/>
  <rect x="150" y="324" width="336" height="18" rx="9" fill="#64748b"/>
  <rect x="150" y="362" width="380" height="18" rx="9" fill="#64748b"/>
  <rect x="150" y="420" width="150" height="42" rx="21" fill="#0f172a"/>
  <rect x="672" y="250" width="300" height="330" rx="24" fill="#e2e8f0"/>
  <rect x="708" y="296" width="228" height="18" rx="9" fill="#64748b"/>
  <rect x="708" y="338" width="168" height="18" rx="9" fill="#94a3b8"/>
  <rect x="708" y="400" width="220" height="108" rx="18" fill="#ffffff" stroke="#cbd5e1"/>
</svg>
